<mxfile host="Electron" modified="2023-05-26T12:32:27.269Z" agent="Mozilla/5.0 (Windows NT 10.0; Win64; x64) AppleWebKit/537.36 (KHTML, like Gecko) draw.io/21.2.8 Chrome/112.0.5615.165 Electron/24.2.0 Safari/537.36" etag="uf-tw9qjTDO6PTUlmRZy" version="21.2.8" type="device">
  <diagram name="第 1 页" id="d5Z5I5ofTRi0zzUbWLUw">
    <mxGraphModel dx="954" dy="725" grid="1" gridSize="10" guides="1" tooltips="1" connect="1" arrows="1" fold="1" page="1" pageScale="1" pageWidth="1654" pageHeight="1169" math="0" shadow="0">
      <root>
        <mxCell id="0" />
        <mxCell id="1" parent="0" />
        <mxCell id="QvaDKjENMUkR0Sk9uSU9-1" value="&lt;font style=&quot;font-size: 25px;&quot; face=&quot;Times New Roman&quot;&gt;&lt;b&gt;X-DataSet&lt;/b&gt;&lt;/font&gt;" style="text;html=1;strokeColor=none;fillColor=none;align=center;verticalAlign=middle;whiteSpace=wrap;rounded=0;" vertex="1" parent="1">
          <mxGeometry x="520" y="170" width="160" height="60" as="geometry" />
        </mxCell>
        <mxCell id="QvaDKjENMUkR0Sk9uSU9-18" value="" style="group" vertex="1" connectable="0" parent="1">
          <mxGeometry x="40" y="400" width="240" height="160" as="geometry" />
        </mxCell>
        <mxCell id="QvaDKjENMUkR0Sk9uSU9-3" value="" style="ellipse;whiteSpace=wrap;html=1;aspect=fixed;fillColor=#d5e8d4;strokeColor=#82b366;" vertex="1" parent="QvaDKjENMUkR0Sk9uSU9-18">
          <mxGeometry x="102.85714285714285" width="30.584707646176906" height="30.584707646176906" as="geometry" />
        </mxCell>
        <mxCell id="QvaDKjENMUkR0Sk9uSU9-4" value="" style="ellipse;whiteSpace=wrap;html=1;aspect=fixed;" vertex="1" parent="QvaDKjENMUkR0Sk9uSU9-18">
          <mxGeometry x="34.28571428571428" y="60" width="30.584707646176906" height="30.584707646176906" as="geometry" />
        </mxCell>
        <mxCell id="QvaDKjENMUkR0Sk9uSU9-5" value="" style="ellipse;whiteSpace=wrap;html=1;aspect=fixed;fillColor=#d5e8d4;strokeColor=#82b366;" vertex="1" parent="QvaDKjENMUkR0Sk9uSU9-18">
          <mxGeometry x="171.4285714285714" y="60" width="30.584707646176906" height="30.584707646176906" as="geometry" />
        </mxCell>
        <mxCell id="QvaDKjENMUkR0Sk9uSU9-7" value="" style="ellipse;whiteSpace=wrap;html=1;aspect=fixed;" vertex="1" parent="QvaDKjENMUkR0Sk9uSU9-18">
          <mxGeometry y="120" width="30.584707646176906" height="30.584707646176906" as="geometry" />
        </mxCell>
        <mxCell id="QvaDKjENMUkR0Sk9uSU9-8" value="" style="ellipse;whiteSpace=wrap;html=1;aspect=fixed;" vertex="1" parent="QvaDKjENMUkR0Sk9uSU9-18">
          <mxGeometry x="68.57142857142856" y="120" width="30.584707646176906" height="30.584707646176906" as="geometry" />
        </mxCell>
        <mxCell id="QvaDKjENMUkR0Sk9uSU9-9" value="" style="ellipse;whiteSpace=wrap;html=1;aspect=fixed;fillColor=#d5e8d4;strokeColor=#82b366;" vertex="1" parent="QvaDKjENMUkR0Sk9uSU9-18">
          <mxGeometry x="137.1428571428571" y="120" width="30.584707646176906" height="30.584707646176906" as="geometry" />
        </mxCell>
        <mxCell id="QvaDKjENMUkR0Sk9uSU9-10" value="" style="ellipse;whiteSpace=wrap;html=1;aspect=fixed;" vertex="1" parent="QvaDKjENMUkR0Sk9uSU9-18">
          <mxGeometry x="205.7142857142857" y="120" width="30.584707646176906" height="30.584707646176906" as="geometry" />
        </mxCell>
        <mxCell id="QvaDKjENMUkR0Sk9uSU9-11" value="" style="endArrow=classic;html=1;rounded=0;exitX=0;exitY=1;exitDx=0;exitDy=0;entryX=1;entryY=0;entryDx=0;entryDy=0;strokeWidth=1;" edge="1" parent="QvaDKjENMUkR0Sk9uSU9-18" source="QvaDKjENMUkR0Sk9uSU9-3" target="QvaDKjENMUkR0Sk9uSU9-4">
          <mxGeometry width="50" height="50" relative="1" as="geometry">
            <mxPoint x="128.57142857142856" y="125" as="sourcePoint" />
            <mxPoint x="90" y="75" as="targetPoint" />
          </mxGeometry>
        </mxCell>
        <mxCell id="QvaDKjENMUkR0Sk9uSU9-12" value="" style="endArrow=classic;html=1;rounded=0;exitX=1;exitY=1;exitDx=0;exitDy=0;entryX=0;entryY=0;entryDx=0;entryDy=0;strokeWidth=1;" edge="1" parent="QvaDKjENMUkR0Sk9uSU9-18" source="QvaDKjENMUkR0Sk9uSU9-3" target="QvaDKjENMUkR0Sk9uSU9-5">
          <mxGeometry width="50" height="50" relative="1" as="geometry">
            <mxPoint x="128.57142857142856" y="125" as="sourcePoint" />
            <mxPoint x="150" y="100" as="targetPoint" />
          </mxGeometry>
        </mxCell>
        <mxCell id="QvaDKjENMUkR0Sk9uSU9-13" value="" style="endArrow=classic;html=1;rounded=0;exitX=0;exitY=1;exitDx=0;exitDy=0;entryX=1;entryY=0;entryDx=0;entryDy=0;strokeWidth=1;" edge="1" parent="QvaDKjENMUkR0Sk9uSU9-18" source="QvaDKjENMUkR0Sk9uSU9-4" target="QvaDKjENMUkR0Sk9uSU9-7">
          <mxGeometry width="50" height="50" relative="1" as="geometry">
            <mxPoint x="128.57142857142856" y="175" as="sourcePoint" />
            <mxPoint x="150" y="150" as="targetPoint" />
          </mxGeometry>
        </mxCell>
        <mxCell id="QvaDKjENMUkR0Sk9uSU9-15" value="" style="endArrow=classic;html=1;rounded=0;exitX=1;exitY=1;exitDx=0;exitDy=0;entryX=0;entryY=0;entryDx=0;entryDy=0;endSize=7;strokeWidth=1;" edge="1" parent="QvaDKjENMUkR0Sk9uSU9-18" source="QvaDKjENMUkR0Sk9uSU9-4" target="QvaDKjENMUkR0Sk9uSU9-8">
          <mxGeometry width="50" height="50" relative="1" as="geometry">
            <mxPoint x="128.57142857142856" y="125" as="sourcePoint" />
            <mxPoint x="150" y="100" as="targetPoint" />
          </mxGeometry>
        </mxCell>
        <mxCell id="QvaDKjENMUkR0Sk9uSU9-16" value="" style="endArrow=classic;html=1;rounded=0;exitX=0;exitY=1;exitDx=0;exitDy=0;entryX=1;entryY=0;entryDx=0;entryDy=0;strokeWidth=1;" edge="1" parent="QvaDKjENMUkR0Sk9uSU9-18" source="QvaDKjENMUkR0Sk9uSU9-5" target="QvaDKjENMUkR0Sk9uSU9-9">
          <mxGeometry width="50" height="50" relative="1" as="geometry">
            <mxPoint x="128.57142857142856" y="125" as="sourcePoint" />
            <mxPoint x="150" y="100" as="targetPoint" />
          </mxGeometry>
        </mxCell>
        <mxCell id="QvaDKjENMUkR0Sk9uSU9-17" value="" style="endArrow=classic;html=1;rounded=0;exitX=1;exitY=1;exitDx=0;exitDy=0;entryX=0;entryY=0;entryDx=0;entryDy=0;strokeWidth=1;" edge="1" parent="QvaDKjENMUkR0Sk9uSU9-18" source="QvaDKjENMUkR0Sk9uSU9-5" target="QvaDKjENMUkR0Sk9uSU9-10">
          <mxGeometry width="50" height="50" relative="1" as="geometry">
            <mxPoint x="128.57142857142856" y="125" as="sourcePoint" />
            <mxPoint x="150" y="100" as="targetPoint" />
          </mxGeometry>
        </mxCell>
        <mxCell id="QvaDKjENMUkR0Sk9uSU9-20" value="" style="group" vertex="1" connectable="0" parent="1">
          <mxGeometry x="320" y="400" width="240" height="160" as="geometry" />
        </mxCell>
        <mxCell id="QvaDKjENMUkR0Sk9uSU9-21" value="" style="ellipse;whiteSpace=wrap;html=1;aspect=fixed;fillColor=#fff2cc;strokeColor=#d6b656;" vertex="1" parent="QvaDKjENMUkR0Sk9uSU9-20">
          <mxGeometry x="102.85714285714285" width="30.584707646176906" height="30.584707646176906" as="geometry" />
        </mxCell>
        <mxCell id="QvaDKjENMUkR0Sk9uSU9-22" value="" style="ellipse;whiteSpace=wrap;html=1;aspect=fixed;" vertex="1" parent="QvaDKjENMUkR0Sk9uSU9-20">
          <mxGeometry x="34.28571428571428" y="60" width="30.584707646176906" height="30.584707646176906" as="geometry" />
        </mxCell>
        <mxCell id="QvaDKjENMUkR0Sk9uSU9-23" value="" style="ellipse;whiteSpace=wrap;html=1;aspect=fixed;fillColor=#fff2cc;strokeColor=#d6b656;" vertex="1" parent="QvaDKjENMUkR0Sk9uSU9-20">
          <mxGeometry x="171.4285714285714" y="60" width="30.584707646176906" height="30.584707646176906" as="geometry" />
        </mxCell>
        <mxCell id="QvaDKjENMUkR0Sk9uSU9-24" value="" style="ellipse;whiteSpace=wrap;html=1;aspect=fixed;" vertex="1" parent="QvaDKjENMUkR0Sk9uSU9-20">
          <mxGeometry y="120" width="30.584707646176906" height="30.584707646176906" as="geometry" />
        </mxCell>
        <mxCell id="QvaDKjENMUkR0Sk9uSU9-25" value="" style="ellipse;whiteSpace=wrap;html=1;aspect=fixed;" vertex="1" parent="QvaDKjENMUkR0Sk9uSU9-20">
          <mxGeometry x="68.57142857142856" y="120" width="30.584707646176906" height="30.584707646176906" as="geometry" />
        </mxCell>
        <mxCell id="QvaDKjENMUkR0Sk9uSU9-26" value="" style="ellipse;whiteSpace=wrap;html=1;aspect=fixed;" vertex="1" parent="QvaDKjENMUkR0Sk9uSU9-20">
          <mxGeometry x="137.1428571428571" y="120" width="30.584707646176906" height="30.584707646176906" as="geometry" />
        </mxCell>
        <mxCell id="QvaDKjENMUkR0Sk9uSU9-27" value="" style="ellipse;whiteSpace=wrap;html=1;aspect=fixed;fillColor=#fff2cc;strokeColor=#d6b656;" vertex="1" parent="QvaDKjENMUkR0Sk9uSU9-20">
          <mxGeometry x="205.7142857142857" y="120" width="30.584707646176906" height="30.584707646176906" as="geometry" />
        </mxCell>
        <mxCell id="QvaDKjENMUkR0Sk9uSU9-28" value="" style="endArrow=classic;html=1;rounded=0;exitX=0;exitY=1;exitDx=0;exitDy=0;entryX=1;entryY=0;entryDx=0;entryDy=0;strokeWidth=1;" edge="1" parent="QvaDKjENMUkR0Sk9uSU9-20" source="QvaDKjENMUkR0Sk9uSU9-21" target="QvaDKjENMUkR0Sk9uSU9-22">
          <mxGeometry width="50" height="50" relative="1" as="geometry">
            <mxPoint x="128.57142857142856" y="125" as="sourcePoint" />
            <mxPoint x="90" y="75" as="targetPoint" />
          </mxGeometry>
        </mxCell>
        <mxCell id="QvaDKjENMUkR0Sk9uSU9-29" value="" style="endArrow=classic;html=1;rounded=0;exitX=1;exitY=1;exitDx=0;exitDy=0;entryX=0;entryY=0;entryDx=0;entryDy=0;strokeWidth=1;" edge="1" parent="QvaDKjENMUkR0Sk9uSU9-20" source="QvaDKjENMUkR0Sk9uSU9-21" target="QvaDKjENMUkR0Sk9uSU9-23">
          <mxGeometry width="50" height="50" relative="1" as="geometry">
            <mxPoint x="128.57142857142856" y="125" as="sourcePoint" />
            <mxPoint x="150" y="100" as="targetPoint" />
          </mxGeometry>
        </mxCell>
        <mxCell id="QvaDKjENMUkR0Sk9uSU9-30" value="" style="endArrow=classic;html=1;rounded=0;exitX=0;exitY=1;exitDx=0;exitDy=0;entryX=1;entryY=0;entryDx=0;entryDy=0;strokeWidth=1;" edge="1" parent="QvaDKjENMUkR0Sk9uSU9-20" source="QvaDKjENMUkR0Sk9uSU9-22" target="QvaDKjENMUkR0Sk9uSU9-24">
          <mxGeometry width="50" height="50" relative="1" as="geometry">
            <mxPoint x="128.57142857142856" y="175" as="sourcePoint" />
            <mxPoint x="150" y="150" as="targetPoint" />
          </mxGeometry>
        </mxCell>
        <mxCell id="QvaDKjENMUkR0Sk9uSU9-31" value="" style="endArrow=classic;html=1;rounded=0;exitX=1;exitY=1;exitDx=0;exitDy=0;entryX=0;entryY=0;entryDx=0;entryDy=0;endSize=7;strokeWidth=1;" edge="1" parent="QvaDKjENMUkR0Sk9uSU9-20" source="QvaDKjENMUkR0Sk9uSU9-22" target="QvaDKjENMUkR0Sk9uSU9-25">
          <mxGeometry width="50" height="50" relative="1" as="geometry">
            <mxPoint x="128.57142857142856" y="125" as="sourcePoint" />
            <mxPoint x="150" y="100" as="targetPoint" />
          </mxGeometry>
        </mxCell>
        <mxCell id="QvaDKjENMUkR0Sk9uSU9-32" value="" style="endArrow=classic;html=1;rounded=0;exitX=0;exitY=1;exitDx=0;exitDy=0;entryX=1;entryY=0;entryDx=0;entryDy=0;strokeWidth=1;" edge="1" parent="QvaDKjENMUkR0Sk9uSU9-20" source="QvaDKjENMUkR0Sk9uSU9-23" target="QvaDKjENMUkR0Sk9uSU9-26">
          <mxGeometry width="50" height="50" relative="1" as="geometry">
            <mxPoint x="128.57142857142856" y="125" as="sourcePoint" />
            <mxPoint x="150" y="100" as="targetPoint" />
          </mxGeometry>
        </mxCell>
        <mxCell id="QvaDKjENMUkR0Sk9uSU9-33" value="" style="endArrow=classic;html=1;rounded=0;exitX=1;exitY=1;exitDx=0;exitDy=0;entryX=0;entryY=0;entryDx=0;entryDy=0;strokeWidth=1;" edge="1" parent="QvaDKjENMUkR0Sk9uSU9-20" source="QvaDKjENMUkR0Sk9uSU9-23" target="QvaDKjENMUkR0Sk9uSU9-27">
          <mxGeometry width="50" height="50" relative="1" as="geometry">
            <mxPoint x="128.57142857142856" y="125" as="sourcePoint" />
            <mxPoint x="150" y="100" as="targetPoint" />
          </mxGeometry>
        </mxCell>
        <mxCell id="QvaDKjENMUkR0Sk9uSU9-34" value="" style="group" vertex="1" connectable="0" parent="1">
          <mxGeometry x="880" y="400" width="240" height="160" as="geometry" />
        </mxCell>
        <mxCell id="QvaDKjENMUkR0Sk9uSU9-35" value="" style="ellipse;whiteSpace=wrap;html=1;aspect=fixed;fillColor=#f8cecc;strokeColor=#b85450;" vertex="1" parent="QvaDKjENMUkR0Sk9uSU9-34">
          <mxGeometry x="102.85714285714285" width="30.584707646176906" height="30.584707646176906" as="geometry" />
        </mxCell>
        <mxCell id="QvaDKjENMUkR0Sk9uSU9-36" value="" style="ellipse;whiteSpace=wrap;html=1;aspect=fixed;fillColor=#f8cecc;strokeColor=#b85450;" vertex="1" parent="QvaDKjENMUkR0Sk9uSU9-34">
          <mxGeometry x="34.28571428571428" y="60" width="30.584707646176906" height="30.584707646176906" as="geometry" />
        </mxCell>
        <mxCell id="QvaDKjENMUkR0Sk9uSU9-37" value="" style="ellipse;whiteSpace=wrap;html=1;aspect=fixed;" vertex="1" parent="QvaDKjENMUkR0Sk9uSU9-34">
          <mxGeometry x="171.4285714285714" y="60" width="30.584707646176906" height="30.584707646176906" as="geometry" />
        </mxCell>
        <mxCell id="QvaDKjENMUkR0Sk9uSU9-38" value="" style="ellipse;whiteSpace=wrap;html=1;aspect=fixed;fillColor=#f8cecc;strokeColor=#b85450;" vertex="1" parent="QvaDKjENMUkR0Sk9uSU9-34">
          <mxGeometry y="120" width="30.584707646176906" height="30.584707646176906" as="geometry" />
        </mxCell>
        <mxCell id="QvaDKjENMUkR0Sk9uSU9-39" value="" style="ellipse;whiteSpace=wrap;html=1;aspect=fixed;" vertex="1" parent="QvaDKjENMUkR0Sk9uSU9-34">
          <mxGeometry x="68.57142857142856" y="120" width="30.584707646176906" height="30.584707646176906" as="geometry" />
        </mxCell>
        <mxCell id="QvaDKjENMUkR0Sk9uSU9-40" value="" style="ellipse;whiteSpace=wrap;html=1;aspect=fixed;" vertex="1" parent="QvaDKjENMUkR0Sk9uSU9-34">
          <mxGeometry x="137.1428571428571" y="120" width="30.584707646176906" height="30.584707646176906" as="geometry" />
        </mxCell>
        <mxCell id="QvaDKjENMUkR0Sk9uSU9-41" value="" style="ellipse;whiteSpace=wrap;html=1;aspect=fixed;" vertex="1" parent="QvaDKjENMUkR0Sk9uSU9-34">
          <mxGeometry x="205.7142857142857" y="120" width="30.584707646176906" height="30.584707646176906" as="geometry" />
        </mxCell>
        <mxCell id="QvaDKjENMUkR0Sk9uSU9-42" value="" style="endArrow=classic;html=1;rounded=0;exitX=0;exitY=1;exitDx=0;exitDy=0;entryX=1;entryY=0;entryDx=0;entryDy=0;strokeWidth=1;" edge="1" parent="QvaDKjENMUkR0Sk9uSU9-34" source="QvaDKjENMUkR0Sk9uSU9-35" target="QvaDKjENMUkR0Sk9uSU9-36">
          <mxGeometry width="50" height="50" relative="1" as="geometry">
            <mxPoint x="128.57142857142856" y="125" as="sourcePoint" />
            <mxPoint x="90" y="75" as="targetPoint" />
          </mxGeometry>
        </mxCell>
        <mxCell id="QvaDKjENMUkR0Sk9uSU9-43" value="" style="endArrow=classic;html=1;rounded=0;exitX=1;exitY=1;exitDx=0;exitDy=0;entryX=0;entryY=0;entryDx=0;entryDy=0;strokeWidth=1;" edge="1" parent="QvaDKjENMUkR0Sk9uSU9-34" source="QvaDKjENMUkR0Sk9uSU9-35" target="QvaDKjENMUkR0Sk9uSU9-37">
          <mxGeometry width="50" height="50" relative="1" as="geometry">
            <mxPoint x="128.57142857142856" y="125" as="sourcePoint" />
            <mxPoint x="150" y="100" as="targetPoint" />
          </mxGeometry>
        </mxCell>
        <mxCell id="QvaDKjENMUkR0Sk9uSU9-44" value="" style="endArrow=classic;html=1;rounded=0;exitX=0;exitY=1;exitDx=0;exitDy=0;entryX=1;entryY=0;entryDx=0;entryDy=0;strokeWidth=1;" edge="1" parent="QvaDKjENMUkR0Sk9uSU9-34" source="QvaDKjENMUkR0Sk9uSU9-36" target="QvaDKjENMUkR0Sk9uSU9-38">
          <mxGeometry width="50" height="50" relative="1" as="geometry">
            <mxPoint x="128.57142857142856" y="175" as="sourcePoint" />
            <mxPoint x="150" y="150" as="targetPoint" />
          </mxGeometry>
        </mxCell>
        <mxCell id="QvaDKjENMUkR0Sk9uSU9-45" value="" style="endArrow=classic;html=1;rounded=0;exitX=1;exitY=1;exitDx=0;exitDy=0;entryX=0;entryY=0;entryDx=0;entryDy=0;endSize=7;strokeWidth=1;" edge="1" parent="QvaDKjENMUkR0Sk9uSU9-34" source="QvaDKjENMUkR0Sk9uSU9-36" target="QvaDKjENMUkR0Sk9uSU9-39">
          <mxGeometry width="50" height="50" relative="1" as="geometry">
            <mxPoint x="128.57142857142856" y="125" as="sourcePoint" />
            <mxPoint x="150" y="100" as="targetPoint" />
          </mxGeometry>
        </mxCell>
        <mxCell id="QvaDKjENMUkR0Sk9uSU9-46" value="" style="endArrow=classic;html=1;rounded=0;exitX=0;exitY=1;exitDx=0;exitDy=0;entryX=1;entryY=0;entryDx=0;entryDy=0;strokeWidth=1;" edge="1" parent="QvaDKjENMUkR0Sk9uSU9-34" source="QvaDKjENMUkR0Sk9uSU9-37" target="QvaDKjENMUkR0Sk9uSU9-40">
          <mxGeometry width="50" height="50" relative="1" as="geometry">
            <mxPoint x="128.57142857142856" y="125" as="sourcePoint" />
            <mxPoint x="150" y="100" as="targetPoint" />
          </mxGeometry>
        </mxCell>
        <mxCell id="QvaDKjENMUkR0Sk9uSU9-47" value="" style="endArrow=classic;html=1;rounded=0;exitX=1;exitY=1;exitDx=0;exitDy=0;entryX=0;entryY=0;entryDx=0;entryDy=0;strokeWidth=1;" edge="1" parent="QvaDKjENMUkR0Sk9uSU9-34" source="QvaDKjENMUkR0Sk9uSU9-37" target="QvaDKjENMUkR0Sk9uSU9-41">
          <mxGeometry width="50" height="50" relative="1" as="geometry">
            <mxPoint x="128.57142857142856" y="125" as="sourcePoint" />
            <mxPoint x="150" y="100" as="targetPoint" />
          </mxGeometry>
        </mxCell>
        <mxCell id="QvaDKjENMUkR0Sk9uSU9-48" value="" style="group" vertex="1" connectable="0" parent="1">
          <mxGeometry x="600" y="400" width="240" height="160" as="geometry" />
        </mxCell>
        <mxCell id="QvaDKjENMUkR0Sk9uSU9-49" value="" style="ellipse;whiteSpace=wrap;html=1;aspect=fixed;fillColor=#e1d5e7;strokeColor=#9673a6;" vertex="1" parent="QvaDKjENMUkR0Sk9uSU9-48">
          <mxGeometry x="102.85714285714285" width="30.584707646176906" height="30.584707646176906" as="geometry" />
        </mxCell>
        <mxCell id="QvaDKjENMUkR0Sk9uSU9-50" value="" style="ellipse;whiteSpace=wrap;html=1;aspect=fixed;fillColor=#e1d5e7;strokeColor=#9673a6;" vertex="1" parent="QvaDKjENMUkR0Sk9uSU9-48">
          <mxGeometry x="34.28571428571428" y="60" width="30.584707646176906" height="30.584707646176906" as="geometry" />
        </mxCell>
        <mxCell id="QvaDKjENMUkR0Sk9uSU9-51" value="" style="ellipse;whiteSpace=wrap;html=1;aspect=fixed;" vertex="1" parent="QvaDKjENMUkR0Sk9uSU9-48">
          <mxGeometry x="171.4285714285714" y="60" width="30.584707646176906" height="30.584707646176906" as="geometry" />
        </mxCell>
        <mxCell id="QvaDKjENMUkR0Sk9uSU9-52" value="" style="ellipse;whiteSpace=wrap;html=1;aspect=fixed;" vertex="1" parent="QvaDKjENMUkR0Sk9uSU9-48">
          <mxGeometry y="120" width="30.584707646176906" height="30.584707646176906" as="geometry" />
        </mxCell>
        <mxCell id="QvaDKjENMUkR0Sk9uSU9-53" value="" style="ellipse;whiteSpace=wrap;html=1;aspect=fixed;fillColor=#e1d5e7;strokeColor=#9673a6;" vertex="1" parent="QvaDKjENMUkR0Sk9uSU9-48">
          <mxGeometry x="68.57142857142856" y="120" width="30.584707646176906" height="30.584707646176906" as="geometry" />
        </mxCell>
        <mxCell id="QvaDKjENMUkR0Sk9uSU9-54" value="" style="ellipse;whiteSpace=wrap;html=1;aspect=fixed;" vertex="1" parent="QvaDKjENMUkR0Sk9uSU9-48">
          <mxGeometry x="137.1428571428571" y="120" width="30.584707646176906" height="30.584707646176906" as="geometry" />
        </mxCell>
        <mxCell id="QvaDKjENMUkR0Sk9uSU9-55" value="" style="ellipse;whiteSpace=wrap;html=1;aspect=fixed;" vertex="1" parent="QvaDKjENMUkR0Sk9uSU9-48">
          <mxGeometry x="205.7142857142857" y="120" width="30.584707646176906" height="30.584707646176906" as="geometry" />
        </mxCell>
        <mxCell id="QvaDKjENMUkR0Sk9uSU9-56" value="" style="endArrow=classic;html=1;rounded=0;exitX=0;exitY=1;exitDx=0;exitDy=0;entryX=1;entryY=0;entryDx=0;entryDy=0;strokeWidth=1;" edge="1" parent="QvaDKjENMUkR0Sk9uSU9-48" source="QvaDKjENMUkR0Sk9uSU9-49" target="QvaDKjENMUkR0Sk9uSU9-50">
          <mxGeometry width="50" height="50" relative="1" as="geometry">
            <mxPoint x="128.57142857142856" y="125" as="sourcePoint" />
            <mxPoint x="90" y="75" as="targetPoint" />
          </mxGeometry>
        </mxCell>
        <mxCell id="QvaDKjENMUkR0Sk9uSU9-57" value="" style="endArrow=classic;html=1;rounded=0;exitX=1;exitY=1;exitDx=0;exitDy=0;entryX=0;entryY=0;entryDx=0;entryDy=0;strokeWidth=1;" edge="1" parent="QvaDKjENMUkR0Sk9uSU9-48" source="QvaDKjENMUkR0Sk9uSU9-49" target="QvaDKjENMUkR0Sk9uSU9-51">
          <mxGeometry width="50" height="50" relative="1" as="geometry">
            <mxPoint x="128.57142857142856" y="125" as="sourcePoint" />
            <mxPoint x="150" y="100" as="targetPoint" />
          </mxGeometry>
        </mxCell>
        <mxCell id="QvaDKjENMUkR0Sk9uSU9-58" value="" style="endArrow=classic;html=1;rounded=0;exitX=0;exitY=1;exitDx=0;exitDy=0;entryX=1;entryY=0;entryDx=0;entryDy=0;strokeWidth=1;" edge="1" parent="QvaDKjENMUkR0Sk9uSU9-48" source="QvaDKjENMUkR0Sk9uSU9-50" target="QvaDKjENMUkR0Sk9uSU9-52">
          <mxGeometry width="50" height="50" relative="1" as="geometry">
            <mxPoint x="128.57142857142856" y="175" as="sourcePoint" />
            <mxPoint x="150" y="150" as="targetPoint" />
          </mxGeometry>
        </mxCell>
        <mxCell id="QvaDKjENMUkR0Sk9uSU9-59" value="" style="endArrow=classic;html=1;rounded=0;exitX=1;exitY=1;exitDx=0;exitDy=0;entryX=0;entryY=0;entryDx=0;entryDy=0;endSize=7;strokeWidth=1;" edge="1" parent="QvaDKjENMUkR0Sk9uSU9-48" source="QvaDKjENMUkR0Sk9uSU9-50" target="QvaDKjENMUkR0Sk9uSU9-53">
          <mxGeometry width="50" height="50" relative="1" as="geometry">
            <mxPoint x="128.57142857142856" y="125" as="sourcePoint" />
            <mxPoint x="150" y="100" as="targetPoint" />
          </mxGeometry>
        </mxCell>
        <mxCell id="QvaDKjENMUkR0Sk9uSU9-60" value="" style="endArrow=classic;html=1;rounded=0;exitX=0;exitY=1;exitDx=0;exitDy=0;entryX=1;entryY=0;entryDx=0;entryDy=0;strokeWidth=1;" edge="1" parent="QvaDKjENMUkR0Sk9uSU9-48" source="QvaDKjENMUkR0Sk9uSU9-51" target="QvaDKjENMUkR0Sk9uSU9-54">
          <mxGeometry width="50" height="50" relative="1" as="geometry">
            <mxPoint x="128.57142857142856" y="125" as="sourcePoint" />
            <mxPoint x="150" y="100" as="targetPoint" />
          </mxGeometry>
        </mxCell>
        <mxCell id="QvaDKjENMUkR0Sk9uSU9-61" value="" style="endArrow=classic;html=1;rounded=0;exitX=1;exitY=1;exitDx=0;exitDy=0;entryX=0;entryY=0;entryDx=0;entryDy=0;strokeWidth=1;" edge="1" parent="QvaDKjENMUkR0Sk9uSU9-48" source="QvaDKjENMUkR0Sk9uSU9-51" target="QvaDKjENMUkR0Sk9uSU9-55">
          <mxGeometry width="50" height="50" relative="1" as="geometry">
            <mxPoint x="128.57142857142856" y="125" as="sourcePoint" />
            <mxPoint x="150" y="100" as="targetPoint" />
          </mxGeometry>
        </mxCell>
        <mxCell id="QvaDKjENMUkR0Sk9uSU9-62" value="&lt;font style=&quot;font-size: 20px;&quot;&gt;M&lt;sub&gt;1&lt;/sub&gt; Samples&lt;br&gt;N&lt;sub&gt;1&lt;/sub&gt; Features&lt;br&gt;&lt;/font&gt;" style="text;html=1;strokeColor=none;fillColor=none;align=center;verticalAlign=middle;whiteSpace=wrap;rounded=0;" vertex="1" parent="1">
          <mxGeometry x="100" y="300" width="120" height="70" as="geometry" />
        </mxCell>
        <mxCell id="QvaDKjENMUkR0Sk9uSU9-63" value="&lt;font style=&quot;font-size: 20px;&quot;&gt;M&lt;sub&gt;2&lt;/sub&gt; Samples&lt;br&gt;N&lt;sub&gt;2&lt;/sub&gt; Features&lt;br&gt;&lt;/font&gt;" style="text;html=1;strokeColor=none;fillColor=none;align=center;verticalAlign=middle;whiteSpace=wrap;rounded=0;" vertex="1" parent="1">
          <mxGeometry x="380" y="300" width="120" height="70" as="geometry" />
        </mxCell>
        <mxCell id="QvaDKjENMUkR0Sk9uSU9-64" value="&lt;font style=&quot;font-size: 20px;&quot;&gt;M&lt;sub&gt;3&lt;/sub&gt; Samples&lt;br&gt;N&lt;sub&gt;3&lt;/sub&gt; Features&lt;br&gt;&lt;/font&gt;" style="text;html=1;strokeColor=none;fillColor=none;align=center;verticalAlign=middle;whiteSpace=wrap;rounded=0;" vertex="1" parent="1">
          <mxGeometry x="660" y="300" width="120" height="70" as="geometry" />
        </mxCell>
        <mxCell id="QvaDKjENMUkR0Sk9uSU9-65" value="&lt;font style=&quot;font-size: 20px;&quot;&gt;M&lt;sub&gt;4&lt;/sub&gt; Samples&lt;br&gt;N&lt;sub&gt;4&lt;/sub&gt; Features&lt;br&gt;&lt;/font&gt;" style="text;html=1;strokeColor=none;fillColor=none;align=center;verticalAlign=middle;whiteSpace=wrap;rounded=0;" vertex="1" parent="1">
          <mxGeometry x="940" y="300" width="120" height="70" as="geometry" />
        </mxCell>
        <mxCell id="QvaDKjENMUkR0Sk9uSU9-67" value="" style="endArrow=classic;html=1;rounded=0;exitX=0.5;exitY=1;exitDx=0;exitDy=0;entryX=0.5;entryY=0;entryDx=0;entryDy=0;strokeWidth=2;" edge="1" parent="1" source="QvaDKjENMUkR0Sk9uSU9-1" target="QvaDKjENMUkR0Sk9uSU9-62">
          <mxGeometry width="50" height="50" relative="1" as="geometry">
            <mxPoint x="520" y="380" as="sourcePoint" />
            <mxPoint x="570" y="330" as="targetPoint" />
          </mxGeometry>
        </mxCell>
        <mxCell id="QvaDKjENMUkR0Sk9uSU9-68" value="" style="endArrow=classic;html=1;rounded=0;exitX=0.5;exitY=1;exitDx=0;exitDy=0;entryX=0.5;entryY=0;entryDx=0;entryDy=0;strokeWidth=2;" edge="1" parent="1" source="QvaDKjENMUkR0Sk9uSU9-1" target="QvaDKjENMUkR0Sk9uSU9-63">
          <mxGeometry width="50" height="50" relative="1" as="geometry">
            <mxPoint x="520" y="380" as="sourcePoint" />
            <mxPoint x="570" y="330" as="targetPoint" />
          </mxGeometry>
        </mxCell>
        <mxCell id="QvaDKjENMUkR0Sk9uSU9-69" value="" style="endArrow=classic;html=1;rounded=0;exitX=0.5;exitY=1;exitDx=0;exitDy=0;entryX=0.5;entryY=0;entryDx=0;entryDy=0;strokeWidth=2;" edge="1" parent="1" source="QvaDKjENMUkR0Sk9uSU9-1" target="QvaDKjENMUkR0Sk9uSU9-64">
          <mxGeometry width="50" height="50" relative="1" as="geometry">
            <mxPoint x="520" y="380" as="sourcePoint" />
            <mxPoint x="570" y="330" as="targetPoint" />
          </mxGeometry>
        </mxCell>
        <mxCell id="QvaDKjENMUkR0Sk9uSU9-70" value="" style="endArrow=classic;html=1;rounded=0;exitX=0.5;exitY=1;exitDx=0;exitDy=0;entryX=0.5;entryY=0;entryDx=0;entryDy=0;strokeWidth=2;" edge="1" parent="1" source="QvaDKjENMUkR0Sk9uSU9-1" target="QvaDKjENMUkR0Sk9uSU9-65">
          <mxGeometry width="50" height="50" relative="1" as="geometry">
            <mxPoint x="520" y="380" as="sourcePoint" />
            <mxPoint x="570" y="330" as="targetPoint" />
          </mxGeometry>
        </mxCell>
        <mxCell id="QvaDKjENMUkR0Sk9uSU9-71" value="&lt;font style=&quot;font-size: 20px;&quot;&gt;Tree 1&lt;br&gt;&lt;/font&gt;" style="text;html=1;strokeColor=none;fillColor=none;align=center;verticalAlign=middle;whiteSpace=wrap;rounded=0;" vertex="1" parent="1">
          <mxGeometry x="100" y="570" width="120" height="50" as="geometry" />
        </mxCell>
        <mxCell id="QvaDKjENMUkR0Sk9uSU9-73" value="&lt;font style=&quot;font-size: 20px;&quot;&gt;Tree 2&lt;br&gt;&lt;/font&gt;" style="text;html=1;strokeColor=none;fillColor=none;align=center;verticalAlign=middle;whiteSpace=wrap;rounded=0;" vertex="1" parent="1">
          <mxGeometry x="380" y="570" width="120" height="50" as="geometry" />
        </mxCell>
        <mxCell id="QvaDKjENMUkR0Sk9uSU9-74" value="&lt;font style=&quot;font-size: 20px;&quot;&gt;Tree 3&lt;br&gt;&lt;/font&gt;" style="text;html=1;strokeColor=none;fillColor=none;align=center;verticalAlign=middle;whiteSpace=wrap;rounded=0;" vertex="1" parent="1">
          <mxGeometry x="660" y="570" width="120" height="50" as="geometry" />
        </mxCell>
        <mxCell id="QvaDKjENMUkR0Sk9uSU9-75" value="&lt;font style=&quot;font-size: 20px;&quot;&gt;Tree 4&lt;br&gt;&lt;/font&gt;" style="text;html=1;strokeColor=none;fillColor=none;align=center;verticalAlign=middle;whiteSpace=wrap;rounded=0;" vertex="1" parent="1">
          <mxGeometry x="940" y="570" width="120" height="50" as="geometry" />
        </mxCell>
        <mxCell id="QvaDKjENMUkR0Sk9uSU9-78" value="" style="shape=flexArrow;endArrow=classic;html=1;rounded=0;exitX=0.5;exitY=1;exitDx=0;exitDy=0;fillColor=#f5f5f5;strokeColor=#666666;" edge="1" parent="1" source="QvaDKjENMUkR0Sk9uSU9-71">
          <mxGeometry width="50" height="50" relative="1" as="geometry">
            <mxPoint x="550" y="600" as="sourcePoint" />
            <mxPoint x="160" y="670" as="targetPoint" />
          </mxGeometry>
        </mxCell>
        <mxCell id="QvaDKjENMUkR0Sk9uSU9-79" value="" style="shape=flexArrow;endArrow=classic;html=1;rounded=0;exitX=0.5;exitY=1;exitDx=0;exitDy=0;fillColor=#f5f5f5;strokeColor=#666666;" edge="1" parent="1" source="QvaDKjENMUkR0Sk9uSU9-73">
          <mxGeometry width="50" height="50" relative="1" as="geometry">
            <mxPoint x="170" y="630" as="sourcePoint" />
            <mxPoint x="440" y="670" as="targetPoint" />
          </mxGeometry>
        </mxCell>
        <mxCell id="QvaDKjENMUkR0Sk9uSU9-80" value="" style="shape=flexArrow;endArrow=classic;html=1;rounded=0;exitX=0.5;exitY=1;exitDx=0;exitDy=0;fillColor=#f5f5f5;strokeColor=#666666;" edge="1" parent="1" source="QvaDKjENMUkR0Sk9uSU9-74">
          <mxGeometry width="50" height="50" relative="1" as="geometry">
            <mxPoint x="180" y="640" as="sourcePoint" />
            <mxPoint x="720" y="670" as="targetPoint" />
          </mxGeometry>
        </mxCell>
        <mxCell id="QvaDKjENMUkR0Sk9uSU9-81" value="" style="shape=flexArrow;endArrow=classic;html=1;rounded=0;exitX=0.5;exitY=1;exitDx=0;exitDy=0;fillColor=#f5f5f5;strokeColor=#666666;" edge="1" parent="1" source="QvaDKjENMUkR0Sk9uSU9-75">
          <mxGeometry width="50" height="50" relative="1" as="geometry">
            <mxPoint x="190" y="650" as="sourcePoint" />
            <mxPoint x="1000" y="670" as="targetPoint" />
          </mxGeometry>
        </mxCell>
        <mxCell id="QvaDKjENMUkR0Sk9uSU9-82" value="&lt;font style=&quot;font-size: 20px;&quot;&gt;Class 1&lt;br&gt;&lt;/font&gt;" style="text;html=1;strokeColor=none;fillColor=none;align=center;verticalAlign=middle;whiteSpace=wrap;rounded=0;" vertex="1" parent="1">
          <mxGeometry x="100" y="680" width="120" height="50" as="geometry" />
        </mxCell>
        <mxCell id="QvaDKjENMUkR0Sk9uSU9-84" value="&lt;font style=&quot;font-size: 20px;&quot;&gt;Class 1&lt;br&gt;&lt;/font&gt;" style="text;html=1;strokeColor=none;fillColor=none;align=center;verticalAlign=middle;whiteSpace=wrap;rounded=0;" vertex="1" parent="1">
          <mxGeometry x="940" y="680" width="120" height="50" as="geometry" />
        </mxCell>
        <mxCell id="QvaDKjENMUkR0Sk9uSU9-85" value="&lt;font style=&quot;font-size: 20px;&quot;&gt;Class 2&lt;br&gt;&lt;/font&gt;" style="text;html=1;strokeColor=none;fillColor=none;align=center;verticalAlign=middle;whiteSpace=wrap;rounded=0;" vertex="1" parent="1">
          <mxGeometry x="380" y="680" width="120" height="50" as="geometry" />
        </mxCell>
        <mxCell id="QvaDKjENMUkR0Sk9uSU9-86" value="&lt;font style=&quot;font-size: 20px;&quot;&gt;Class 3&lt;br&gt;&lt;/font&gt;" style="text;html=1;strokeColor=none;fillColor=none;align=center;verticalAlign=middle;whiteSpace=wrap;rounded=0;" vertex="1" parent="1">
          <mxGeometry x="660" y="680" width="120" height="50" as="geometry" />
        </mxCell>
        <mxCell id="QvaDKjENMUkR0Sk9uSU9-87" value="" style="shape=crossbar;whiteSpace=wrap;html=1;rounded=1;" vertex="1" parent="1">
          <mxGeometry x="160" y="760" width="840" height="20" as="geometry" />
        </mxCell>
        <mxCell id="QvaDKjENMUkR0Sk9uSU9-88" value="" style="shape=curlyBracket;whiteSpace=wrap;html=1;rounded=1;flipH=1;labelPosition=right;verticalLabelPosition=middle;align=left;verticalAlign=middle;direction=north;" vertex="1" parent="1">
          <mxGeometry x="440" y="760" width="280" height="20" as="geometry" />
        </mxCell>
        <mxCell id="QvaDKjENMUkR0Sk9uSU9-89" value="&lt;font style=&quot;font-size: 20px;&quot;&gt;&lt;b&gt;Voting&lt;/b&gt;&lt;/font&gt;" style="rounded=1;whiteSpace=wrap;html=1;" vertex="1" parent="1">
          <mxGeometry x="480" y="820" width="200" height="50" as="geometry" />
        </mxCell>
        <mxCell id="QvaDKjENMUkR0Sk9uSU9-90" value="" style="endArrow=none;html=1;rounded=0;exitX=0.5;exitY=0;exitDx=0;exitDy=0;entryX=0.1;entryY=0.5;entryDx=0;entryDy=0;entryPerimeter=0;" edge="1" parent="1" source="QvaDKjENMUkR0Sk9uSU9-89" target="QvaDKjENMUkR0Sk9uSU9-88">
          <mxGeometry width="50" height="50" relative="1" as="geometry">
            <mxPoint x="570" y="790" as="sourcePoint" />
            <mxPoint x="620" y="740" as="targetPoint" />
          </mxGeometry>
        </mxCell>
        <mxCell id="QvaDKjENMUkR0Sk9uSU9-91" value="&lt;font style=&quot;font-size: 20px;&quot;&gt;&lt;b&gt;Final Class&lt;/b&gt;&lt;/font&gt;" style="rounded=1;whiteSpace=wrap;html=1;" vertex="1" parent="1">
          <mxGeometry x="480" y="920" width="200" height="50" as="geometry" />
        </mxCell>
        <mxCell id="QvaDKjENMUkR0Sk9uSU9-93" value="" style="endArrow=none;html=1;rounded=0;exitX=0.5;exitY=0;exitDx=0;exitDy=0;entryX=0.5;entryY=1;entryDx=0;entryDy=0;" edge="1" parent="1" source="QvaDKjENMUkR0Sk9uSU9-91" target="QvaDKjENMUkR0Sk9uSU9-89">
          <mxGeometry width="50" height="50" relative="1" as="geometry">
            <mxPoint x="570" y="790" as="sourcePoint" />
            <mxPoint x="620" y="740" as="targetPoint" />
          </mxGeometry>
        </mxCell>
      </root>
    </mxGraphModel>
  </diagram>
</mxfile>
